<svg width="892" height="320" viewBox="0 0 892 320" fill="none" xmlns="http://www.w3.org/2000/svg">
<path d="M161.221 84.428L58.551 262.748L85.211 262.698L161.231 130.618L237.661 262.648H264.361L161.231 84.418L161.221 84.428Z" fill="black"/>
<path d="M29.191 262.748L161.221 34.398L293.711 262.608H320.411L175.171 12.458C172.311 7.46797 166.951 4.41797 161.171 4.41797C155.391 4.41797 150.081 7.51797 147.171 12.498L2.49097 262.748H29.191Z" fill="black"/>
<path d="M183.741 262.658H210.401L161.221 177.748L112.511 262.708H139.171" fill="black"/>
<path d="M617.611 182.468L617.421 182.188L617.331 182.368L617.521 182.648L617.611 182.458V182.468Z" fill="black"/>
<path d="M617.511 182.648L630.861 205.658L630.951 205.568L617.601 182.468L617.511 182.648Z" fill="black"/>
<path d="M617.511 182.648L617.331 182.368L604.071 205.468L604.161 205.698L617.511 182.648Z" fill="black"/>
<path d="M862.401 262.618H889.101L743.861 12.458C741.001 7.46797 735.641 4.41797 729.861 4.41797C724.081 4.41797 718.771 7.51797 715.861 12.498L729.861 34.398L862.351 262.608H862.401V262.618Z" fill="black"/>
<path d="M657.791 252.038L630.951 205.568L630.861 205.658L657.791 252.038Z" fill="black"/>
<path d="M715.121 59.9479L701.771 36.8979L688.421 59.9479L701.821 82.998L806.131 262.608H832.791L715.131 59.9379L715.121 59.9479Z" fill="black"/>
<path d="M687.041 108.498L673.691 85.4878L660.341 108.538L673.741 131.548L749.831 262.608H776.531L687.051 108.498H687.041Z" fill="black"/>
<path d="M658.951 157.098L645.601 134.048L632.251 157.098L645.651 180.108L693.561 262.618H720.261L658.961 157.108L658.951 157.098Z" fill="black"/>
<path d="M663.941 262.618L657.791 252.038L630.861 205.658L617.511 182.648L604.161 205.698L571.181 262.708H597.881L638.671 262.658H663.941V262.608V262.618Z" fill="black"/>
<path d="M446.121 173.268C467.761 173.268 485.291 155.728 485.291 134.088C485.291 112.448 467.751 94.918 446.121 94.918C424.491 94.918 406.941 112.458 406.941 134.088C406.941 155.718 424.481 173.268 446.121 173.268Z" fill="black"/>
<path d="M446.121 220.618C398.401 220.618 359.591 181.818 359.591 134.088C359.591 86.3581 398.391 47.5581 446.121 47.5581C493.851 47.5581 532.651 86.3681 532.651 134.088C532.651 181.808 493.841 220.618 446.121 220.618ZM446.121 70.7081C411.151 70.7081 382.691 99.1681 382.691 134.138C382.691 169.108 411.151 197.568 446.121 197.568C481.091 197.568 509.551 169.108 509.551 134.138C509.551 99.1681 481.091 70.7081 446.121 70.7081Z" fill="black"/>
<path d="M446.121 267.328C372.671 267.328 312.931 207.598 312.931 134.138C312.931 60.6777 372.671 0.907715 446.121 0.907715C519.571 0.907715 579.311 60.6377 579.311 134.098C579.311 207.558 519.581 267.288 446.121 267.288V267.338V267.328ZM446.121 24.0077C385.421 24.0077 336.031 73.3877 336.031 134.098C336.031 194.808 385.421 244.188 446.121 244.188C506.821 244.188 556.211 194.808 556.211 134.098C556.211 73.3877 506.831 24.0077 446.121 24.0077Z" fill="black"/>
<path d="M195.817 292.626L185.353 319.069H191.701L193.589 314.007H203.269L205.153 319.069H211.651L201.258 292.626H195.817ZM195.39 309.173L196.684 305.7C196.887 305.07 197.098 304.467 197.327 303.886C197.556 303.283 197.754 302.689 197.93 302.112C198.11 301.575 198.273 301.034 198.436 300.497C198.608 301.016 198.779 301.553 198.951 302.112C199.154 302.742 199.352 303.358 199.554 303.961C199.757 304.564 199.959 305.132 200.157 305.66L201.465 309.173H195.385H195.39Z" fill="black"/>
<path d="M245.009 299.163V302.033C245.036 302.913 245.058 303.732 245.084 304.489C245.137 305.247 245.185 305.986 245.234 306.717C245.309 307.448 245.384 308.191 245.463 308.944C245.48 309.12 245.502 309.305 245.524 309.486L233.15 292.626H227.41V319.069H233.643V310.23C233.643 309.6 233.63 309.032 233.604 308.53C233.604 308.002 233.591 307.474 233.569 306.946C233.542 306.417 233.494 305.823 233.419 305.172C233.37 304.516 233.291 303.772 233.19 302.944C233.177 302.812 233.164 302.671 233.155 302.535L245.432 319.073H251.247V292.626H245.014V299.159L245.009 299.163Z" fill="black"/>
<path d="M316.74 295.914C315.508 294.682 314.059 293.722 312.395 293.044C310.731 292.366 308.909 292.023 306.919 292.023C304.93 292.023 303.103 292.362 301.443 293.044C299.784 293.722 298.331 294.682 297.098 295.914C295.866 297.147 294.906 298.595 294.228 300.259C293.55 301.923 293.207 303.745 293.207 305.735C293.207 307.725 293.546 309.552 294.228 311.211C294.906 312.875 295.866 314.319 297.098 315.556C298.331 316.793 299.779 317.748 301.443 318.426C303.107 319.104 304.943 319.447 306.959 319.447C308.975 319.447 310.736 319.109 312.4 318.426C314.064 317.748 315.512 316.789 316.745 315.556C317.977 314.324 318.924 312.875 319.579 311.211C320.257 309.525 320.601 307.699 320.601 305.735C320.601 303.772 320.262 301.919 319.579 300.259C318.924 298.595 317.982 297.151 316.745 295.914H316.74ZM313.527 308.795C313.175 309.728 312.673 310.547 312.017 311.251C311.387 311.929 310.63 312.461 309.75 312.836C308.896 313.214 307.949 313.404 306.919 313.404C305.889 313.404 304.93 313.214 304.049 312.836C303.191 312.457 302.438 311.929 301.782 311.251C301.126 310.573 300.624 309.763 300.272 308.834C299.947 307.879 299.784 306.845 299.784 305.735C299.784 304.626 299.947 303.609 300.272 302.676C300.624 301.743 301.131 300.937 301.782 300.259C302.438 299.555 303.191 299.013 304.049 298.635C304.93 298.256 305.889 298.067 306.919 298.067C307.949 298.067 308.896 298.256 309.75 298.635C310.63 299.013 311.387 299.555 312.017 300.259C312.673 300.937 313.175 301.747 313.527 302.676C313.879 303.609 314.055 304.626 314.055 305.735C314.055 306.845 313.879 307.861 313.527 308.795Z" fill="black"/>
<path d="M344.446 292.626H338.024V319.069H356.231V313.403H344.446V292.626Z" fill="black"/>
<path d="M94.6765 308.645C96.0367 307.888 97.1064 306.858 97.8855 305.546C98.6647 304.212 99.0565 302.711 99.0565 301.051C99.0565 299.392 98.6647 298.005 97.8855 296.746C97.1064 295.461 96.0235 294.453 94.6369 293.726C93.2766 292.996 91.7535 292.63 90.0676 292.63H78.1689V319.073H84.2877V309.781H87.5892L92.8232 319.073H100.153L94.2319 308.874C94.3815 308.803 94.5312 308.729 94.6765 308.645ZM84.2921 297.992H88.9407C89.7462 297.992 90.4285 298.128 90.9788 298.406C91.5599 298.683 92.0001 299.084 92.2994 299.616C92.6031 300.118 92.7528 300.712 92.7528 301.39C92.7528 302.068 92.6119 302.676 92.339 303.204C92.0881 303.732 91.7095 304.15 91.2033 304.45C90.7235 304.727 90.16 304.864 89.5041 304.864H84.2921V297.988V297.992Z" fill="black"/>
<path d="M10.7653 292.626L0.301758 319.069H6.64945L8.53792 314.007H18.2179L20.102 319.069H26.5994L16.2062 292.626H10.7653ZM10.3383 309.173L11.6325 305.7C11.835 305.07 12.0463 304.467 12.2752 303.886C12.4997 303.283 12.7022 302.689 12.8783 302.112C13.0588 301.575 13.2217 301.034 13.3845 300.497C13.5562 301.016 13.7279 301.553 13.8996 302.112C14.1021 302.742 14.3045 303.358 14.5026 303.961C14.7051 304.564 14.9076 305.132 15.1057 305.66L16.4131 309.173H10.3339H10.3383Z" fill="black"/>
<path d="M116.629 298.027H121.089V313.668H116.629V319.069H132.006V313.668H127.507V298.027H132.006V292.626H116.629V298.027Z" fill="black"/>
<path d="M157.049 300.18C157.726 299.502 158.51 298.982 159.39 298.63C160.297 298.252 161.252 298.062 162.261 298.062C163.066 298.062 163.823 298.177 164.528 298.401C165.232 298.626 165.875 298.956 166.456 299.383C167.059 299.788 167.627 300.263 168.155 300.818L172.081 296.324C171.324 295.443 170.417 294.686 169.361 294.057C168.331 293.401 167.208 292.912 165.998 292.582C164.787 292.256 163.555 292.089 162.296 292.089C160.28 292.089 158.418 292.428 156.705 293.11C155.019 293.788 153.545 294.748 152.286 295.98C151.053 297.191 150.08 298.626 149.376 300.285C148.671 301.949 148.319 303.759 148.319 305.726C148.319 307.694 148.645 309.591 149.301 311.277C149.979 312.941 150.939 314.385 152.171 315.622C153.404 316.833 154.852 317.775 156.516 318.457C158.202 319.113 160.042 319.439 162.032 319.439C163.317 319.439 164.589 319.289 165.848 318.985C167.134 318.659 168.291 318.219 169.326 317.665C170.382 317.11 171.227 316.48 171.857 315.776L168.758 310.863C168.278 311.365 167.728 311.819 167.098 312.224C166.495 312.602 165.826 312.902 165.095 313.13C164.365 313.355 163.599 313.469 162.793 313.469C161.609 313.469 160.526 313.293 159.544 312.941C158.589 312.589 157.77 312.074 157.088 311.392C156.41 310.714 155.882 309.904 155.503 308.975C155.125 308.02 154.936 306.959 154.936 305.801C154.936 304.643 155.125 303.547 155.503 302.592C155.882 301.637 156.397 300.831 157.053 300.175L157.049 300.18Z" fill="black"/>
<path d="M45.3388 292.626H42.3542V319.069H48.7768V308.944H59.0159V303.583H48.7768V298.291H60.561V292.626H48.7768H45.3388Z" fill="black"/>
<path d="M764.79 296.328C763.632 295.144 762.245 294.237 760.634 293.608C759.023 292.952 757.249 292.626 755.308 292.626H744.241V319.069H755.308C757.249 319.069 759.023 318.752 760.634 318.122C762.245 317.467 763.632 316.56 764.79 315.402C765.974 314.218 766.881 312.822 767.51 311.211C768.14 309.574 768.452 307.786 768.452 305.85C768.452 303.913 768.14 302.134 767.51 300.523C766.881 298.912 765.974 297.512 764.79 296.332V296.328ZM761.466 308.944C761.136 309.877 760.674 310.67 760.066 311.326C759.49 311.982 758.781 312.497 757.953 312.875C757.121 313.227 756.175 313.403 755.119 313.403H750.664V298.291H755.119C756.175 298.291 757.121 298.481 757.953 298.859C758.781 299.211 759.49 299.718 760.066 300.369C760.674 301.025 761.136 301.817 761.466 302.751C761.792 303.684 761.955 304.714 761.955 305.85C761.955 306.985 761.792 308.015 761.466 308.949V308.944Z" fill="black"/>
<path d="M792.118 308.227H802.616V303.015H792.118V298.106H804.315V292.626H785.884V319.069H804.694V313.593H792.118V308.227Z" fill="black"/>
<path d="M636 292.626L625.541 319.069H631.884L633.773 314.007H643.448L645.332 319.069H651.83L641.441 292.626H636ZM635.573 309.173L636.867 305.7C637.07 305.07 637.281 304.467 637.51 303.886C637.735 303.283 637.937 302.689 638.113 302.112C638.294 301.575 638.461 301.038 638.619 300.501C638.791 301.021 638.963 301.558 639.134 302.112C639.333 302.742 639.535 303.358 639.737 303.961C639.94 304.564 640.138 305.132 640.341 305.66L641.648 309.173H635.573Z" fill="black"/>
<path d="M673.879 300.18C674.562 299.502 675.341 298.982 676.221 298.63C677.128 298.252 678.088 298.062 679.096 298.062C679.901 298.062 680.654 298.177 681.358 298.401C682.067 298.626 682.705 298.956 683.286 299.383C683.89 299.788 684.457 300.263 684.986 300.818L688.917 296.324C688.159 295.443 687.253 294.686 686.196 294.057C685.162 293.401 684.044 292.912 682.833 292.582C681.627 292.256 680.39 292.089 679.131 292.089C677.119 292.089 675.253 292.428 673.54 293.11C671.854 293.788 670.38 294.748 669.121 295.98C667.888 297.191 666.92 298.626 666.215 300.285C665.507 301.949 665.155 303.759 665.155 305.726C665.155 307.694 665.485 309.591 666.136 311.277C666.818 312.941 667.774 314.385 669.006 315.622C670.243 316.833 671.692 317.775 673.351 318.457C675.041 319.113 676.877 319.439 678.867 319.439C680.152 319.439 681.424 319.289 682.683 318.985C683.969 318.659 685.126 318.219 686.157 317.665C687.213 317.11 688.058 316.48 688.688 315.776L685.593 310.863C685.113 311.365 684.559 311.819 683.929 312.224C683.326 312.602 682.657 312.902 681.926 313.13C681.195 313.355 680.43 313.469 679.624 313.469C678.44 313.469 677.357 313.293 676.375 312.941C675.416 312.589 674.597 312.074 673.919 311.392C673.241 310.714 672.708 309.904 672.334 308.975C671.956 308.02 671.766 306.959 671.766 305.801C671.766 304.643 671.956 303.547 672.334 302.592C672.708 301.637 673.228 300.831 673.879 300.175V300.18Z" fill="black"/>
<path d="M712.648 292.626L702.184 319.069H708.532L710.421 314.007H720.096L721.98 319.069H728.478L718.089 292.626H712.648ZM712.221 309.173L713.515 305.7C713.713 305.07 713.929 304.467 714.158 303.886C714.382 303.283 714.585 302.689 714.761 302.112C714.941 301.575 715.109 301.038 715.267 300.501C715.439 301.021 715.61 301.558 715.782 302.112C715.98 302.742 716.183 303.358 716.385 303.961C716.588 304.564 716.786 305.132 716.988 305.66L718.296 309.173H712.221Z" fill="black"/>
<path d="M384.874 292.626L379.055 301.787L372.672 292.626H365.382L375.806 307.364V319.069H382.268V307.293L391.94 292.626H384.874Z" fill="black"/>
<path d="M836.01 304.956L828.434 292.63H822.689V319.073H828.923V310.837C828.923 308.394 828.861 306.29 828.733 304.529C828.707 304.093 828.681 303.666 828.645 303.235L834.628 312.646H837.119L843.26 303.12C843.212 303.649 843.163 304.181 843.128 304.714C843.027 306.528 842.974 308.566 842.974 310.833V319.069H849.207V292.626H843.691L836.01 304.952V304.956Z" fill="black"/>
<path d="M891.29 292.626H884.225L878.406 301.787L872.023 292.626H864.733L875.161 307.364V319.069H881.619V307.289L891.29 292.626Z" fill="black"/>
<path d="M420.799 304.956L413.223 292.626H407.483V319.069H413.716V310.833C413.716 308.39 413.655 306.285 413.527 304.525C413.501 304.089 413.474 303.662 413.439 303.23L419.421 312.642H421.913L428.049 303.116C428.001 303.644 427.952 304.177 427.917 304.709C427.816 306.523 427.768 308.561 427.768 310.828V319.064H434.001V292.626H428.485L420.799 304.956Z" fill="black"/>
<path d="M468.935 293.762C467.65 293.005 466.18 292.63 464.516 292.63H453.11V319.073H459.528V310.234H464.516C466.18 310.234 467.65 309.842 468.935 309.063C470.243 308.284 471.277 307.223 472.034 305.889C472.813 304.529 473.205 302.993 473.205 301.28C473.205 299.568 472.813 298.172 472.034 296.861C471.277 295.553 470.243 294.519 468.935 293.762ZM466.215 303.054C465.938 303.534 465.572 303.913 465.119 304.186C464.665 304.463 464.164 304.599 463.609 304.599H459.418V298.291H463.609C464.164 298.291 464.665 298.419 465.119 298.67C465.572 298.921 465.938 299.273 466.215 299.726C466.492 300.18 466.633 300.734 466.633 301.39C466.633 302.046 466.492 302.575 466.215 303.054Z" fill="black"/>
<path d="M583.242 296.328C582.084 295.144 580.698 294.237 579.087 293.608C577.476 292.952 575.702 292.626 573.76 292.626H562.694V319.069H573.76C575.702 319.069 577.476 318.752 579.087 318.122C580.698 317.467 582.084 316.56 583.242 315.402C584.426 314.218 585.333 312.822 585.963 311.211C586.592 309.574 586.905 307.786 586.905 305.85C586.905 303.913 586.592 302.134 585.963 300.523C585.333 298.912 584.426 297.512 583.242 296.332V296.328ZM579.919 308.944C579.589 309.877 579.126 310.67 578.519 311.326C577.942 311.982 577.238 312.497 576.406 312.875C575.574 313.227 574.627 313.403 573.571 313.403H569.116V298.291H573.571C574.627 298.291 575.574 298.481 576.406 298.859C577.238 299.211 577.942 299.718 578.519 300.369C579.126 301.025 579.589 301.817 579.919 302.751C580.244 303.684 580.407 304.714 580.407 305.85C580.407 306.985 580.244 308.015 579.919 308.949V308.944Z" fill="black"/>
<path d="M490.056 298.027H494.511V313.668H490.056V319.069H505.428V313.668H500.933V298.027H505.428V292.626H490.056V298.027Z" fill="black"/>
<path d="M531.1 292.626L520.637 319.069H526.984L528.873 314.007H538.548L540.433 319.069H546.93L536.541 292.626H531.1ZM530.673 309.173L531.967 305.7C532.166 305.07 532.381 304.467 532.61 303.886C532.835 303.283 533.037 302.689 533.213 302.112C533.394 301.575 533.561 301.038 533.719 300.501C533.891 301.021 534.063 301.558 534.235 302.112C534.433 302.742 534.635 303.358 534.838 303.961C535.04 304.564 535.238 305.132 535.441 305.66L536.748 309.173H530.673Z" fill="black"/>
</svg>
